<svg xmlns="http://www.w3.org/2000/svg" viewBox="0 0 713.92 145.45"><defs><style>.cls-1{fill:#034877;}.cls-2{fill:#fd2d01;}</style></defs><g id="Calque_2" data-name="Calque 2"><g id="Accueil"><g id="b84507ba-a37d-0d6c-3fcb-8fc531264173"><path class="cls-1" d="M43.16,86.41h0q-18.37,0-30.77-12.4h0Q0,61.62,0,43.08H0Q0,24.87,12.39,12.39h0Q24.78,0,43.16,0h0q18.47,0,31.7,11.55h0L63.39,24.11h0A32,32,0,0,0,43.16,17.2h0q-11.62.07-18.8,7.33h0q-7.08,7.17-7.08,18.38h0q0,12,7.17,19.13h0q7.15,7.08,18.79,7.08h0q9.36,0,14.34-3.62h0V50.66l-11.47.09V34.56H74.86V74.94h0Q61.71,86.4,43.16,86.41Zm62.63-57.66v6.4h0a20.44,20.44,0,0,1,15.09-6.32h0a32.28,32.28,0,0,1,5.31.42h0l-2.52,15.93h0q-2.79-2.52-8-2.69h0q-5.91.42-9.87,8.51h0V86.41H89.69V30.52ZM162.86,87h0a28.5,28.5,0,0,1-21-8.43h0a28.55,28.55,0,0,1-8.34-20.91h0q0-12.55,8.34-21h0a28.5,28.5,0,0,1,21-8.43h0a28.48,28.48,0,0,1,21,8.43h0a28.5,28.5,0,0,1,8.43,21h0q0,12.56-8.43,20.91h0a28.48,28.48,0,0,1-21,8.43Zm0-13.91h0a13.83,13.83,0,0,0,10.63-4.47h0a15.38,15.38,0,0,0,4.13-11h0a15.38,15.38,0,0,0-4.13-11h0a13.93,13.93,0,0,0-10.71-4.47h0a13.8,13.8,0,0,0-10.62,4.47h0a15.54,15.54,0,0,0-4,11h0a15.54,15.54,0,0,0,4,11h0A13.9,13.9,0,0,0,162.86,73.09ZM238,66h0V28.75h16.1V86.41H238V81.18h0a20,20,0,0,1-13.82,5.23h0q-11,0-16.69-6.66h0a22.53,22.53,0,0,1-5.82-15.26h0V28.75h16.19V60.44h0q0,5.73,2.86,8.94h0q2.87,3.2,8.69,3.37h0Q234.44,72.41,238,66Zm46,44.67-16.1-.08V30.52l16.1-1.77v4.63h0q6.48-4.64,12.73-4.63h0q13.23,0,21,8.68h0a29,29,0,0,1,7.84,20.15h0a29,29,0,0,1-7.84,20.14h0q-7.75,8.69-21,8.69h0q-8.68-.6-12.73-4.73h0Zm0-58.33h0v9.36h0q1.17,9.69,12.14,11.38h0Q309.88,72,311.65,58.76h0Q311.07,42.58,296.06,42h0Q285.1,43.75,283.92,52.35ZM363,87h0q-12.57,0-20.91-8.43h0a28.39,28.39,0,0,1-8.43-20.91h0a28.5,28.5,0,0,1,8.43-21h0q8.35-8.43,20.91-8.43h0a28.5,28.5,0,0,1,21,8.43h0a28.5,28.5,0,0,1,8.43,21h0q0,12.56-8.43,20.91h0A28.5,28.5,0,0,1,363,87Zm0-13.91h0a13.65,13.65,0,0,0,10.62-4.47h0a15.38,15.38,0,0,0,4.13-11h0a15.38,15.38,0,0,0-4.13-11h0a13.76,13.76,0,0,0-10.71-4.47h0a13.83,13.83,0,0,0-10.62,4.47h0a15.53,15.53,0,0,0-4,11h0a15.53,15.53,0,0,0,4,11h0A13.92,13.92,0,0,0,363,73.09ZM419.3,49.57h0V86.41H403.11V30.52l16.19-1.77v5.14h0q5.4-5.05,13.82-5.06h0q10.88,0,16.7,6.58h0q6.31-6.58,19-6.58h0q11,0,16.78,6.58h0a22.81,22.81,0,0,1,5.73,15.34h0V86.41h-16.1V54.71h0q0-5.73-2.61-8.94h0q-2.62-3.12-8.43-3.28h0q-4.81.33-8.27,6.32h0a19.74,19.74,0,0,0-.33,3.62h0v34h-16.1V54.71h0q0-5.73-2.62-8.94h0q-2.61-3.12-8.43-3.28h0Q423.09,42.82,419.3,49.57Zm93.65-4-6.32-9.78h0q11-6.92,25.38-6.91h0q10.37,0,16.35,5.73h0q6.07,5.82,6.07,17.28h0V86.41h-16.1V81.85h0q-7.08,4.56-12.73,4.56h0q-11.46,0-17.28-4.89h0q-5.73-4.89-5.73-13.49h0a21.37,21.37,0,0,1,5.48-14.42h0q5.39-6.31,17.53-6.32h0q5.64,0,12.73,3.46h0V49h0q-.17-6.33-9.27-6.92h0q-10.38,0-16.11,3.46Zm25.38,23.6h0V62.63h0q-2.28-4.46-11-4.46h0q-10.36,1.17-11,8.09h0q.58,6.83,11,7.42h0Q536.05,73.68,538.33,69.12ZM585,49.82h0V86.41H568.84V30.52L585,28.75V34h0a20.18,20.18,0,0,1,13.82-5.14h0q11,0,16.7,6.58h0a22.81,22.81,0,0,1,5.73,15.34h0V86.41h-16.1V54.71h0q0-5.73-2.87-8.94h0q-3-3.12-8.77-3.28h0Q588.58,42.82,585,49.82ZM651,86.41h-16.1V28.75H651ZM634.26,15h0a7.77,7.77,0,0,0,2.28,5.73h0a8.86,8.86,0,0,0,6.4,2.27h0a8.78,8.78,0,0,0,6.33-2.27h0A7.8,7.8,0,0,0,651.54,15h0a8.08,8.08,0,0,0-2.27-5.82h0a8.77,8.77,0,0,0-6.5-2.36h0a8.39,8.39,0,0,0-6.23,2.36h0A8,8,0,0,0,634.26,15Zm38.19,30.51-6.33-9.78h0q11-6.92,25.38-6.91h0q10.37,0,16.44,5.73h0q6,5.82,6,17.28h0V86.41h-16.1V81.85h0q-7,4.56-12.64,4.56h0q-11.55,0-17.29-4.89h0q-5.8-4.89-5.81-13.49h0a21.37,21.37,0,0,1,5.48-14.42h0q5.38-6.31,17.62-6.32h0q5.57,0,12.64,3.46h0V49h0q-.09-6.33-9.19-6.92h0q-10.36,0-16.18,3.46Zm25.37,23.6h0V62.63h0q-2.28-4.46-11-4.46h0q-10.36,1.17-11,8.09h0q.6,6.83,11,7.42h0Q695.55,73.68,697.82,69.12Z"/></g><path class="cls-2" d="M498.78,144.75V102h8.63v42.75Z"/><path class="cls-2" d="M543.74,144.75h-8.19V128.94a24.43,24.43,0,0,0-.53-6.49,4.49,4.49,0,0,0-1.7-2.28,4.86,4.86,0,0,0-2.85-.82,6.58,6.58,0,0,0-3.82,1.17,5.8,5.8,0,0,0-2.31,3.09,26.53,26.53,0,0,0-.63,7.11v14h-8.19v-31h7.61v4.55a12.67,12.67,0,0,1,15.16-4.27,8.3,8.3,0,0,1,3.4,2.49,9.13,9.13,0,0,1,1.6,3.44,25.68,25.68,0,0,1,.45,5.51Z"/><path class="cls-2" d="M566.25,113.78v6.53h-5.6v12.48a29.84,29.84,0,0,0,.17,4.42,1.77,1.77,0,0,0,.72,1,2.27,2.27,0,0,0,1.39.41,10.6,10.6,0,0,0,3.29-.78l.7,6.35a16.19,16.19,0,0,1-6.47,1.23,10.14,10.14,0,0,1-4-.75,5.72,5.72,0,0,1-2.61-1.92,7.61,7.61,0,0,1-1.16-3.19,40.75,40.75,0,0,1-.26-5.78v-13.5h-3.76v-6.53h3.76v-6.15l8.22-4.79v10.94Z"/><path class="cls-2" d="M579.78,144.75h-8.19v-31h7.61v4.4a13.18,13.18,0,0,1,3.51-4.11,6.5,6.5,0,0,1,3.55-1,10.41,10.41,0,0,1,5.39,1.55l-2.53,7.14a7.27,7.27,0,0,0-3.85-1.34,4.51,4.51,0,0,0-2.92.95,6.46,6.46,0,0,0-1.88,3.42c-.46,1.65-.69,5.12-.69,10.38Z"/><path class="cls-2" d="M601.3,123.23l-7.43-1.34a11.54,11.54,0,0,1,4.31-6.65c2-1.44,5.08-2.16,9.1-2.16q5.49,0,8.17,1.3a8.1,8.1,0,0,1,3.77,3.29q1.1,2,1.1,7.34l-.09,9.56a33.48,33.48,0,0,0,.39,6,17.83,17.83,0,0,0,1.47,4.16H614c-.22-.55-.48-1.35-.79-2.42-.13-.49-.23-.81-.29-1a14.68,14.68,0,0,1-4.49,3.07,12.9,12.9,0,0,1-5.1,1,10.55,10.55,0,0,1-7.54-2.6,8.62,8.62,0,0,1-2.76-6.56,8.77,8.77,0,0,1,1.26-4.68,8.14,8.14,0,0,1,3.51-3.15,27.74,27.74,0,0,1,6.52-1.91,45,45,0,0,0,8-2v-.82a4.26,4.26,0,0,0-1.17-3.37c-.78-.67-2.24-1-4.4-1a5.87,5.87,0,0,0-3.41.86A6,6,0,0,0,601.3,123.23Zm11,6.65c-1,.35-2.71.76-5,1.25a15.06,15.06,0,0,0-4.46,1.43,3.41,3.41,0,0,0-1.6,2.89,4,4,0,0,0,1.28,3,4.45,4.45,0,0,0,3.27,1.25,7.09,7.09,0,0,0,4.22-1.45,5.11,5.11,0,0,0,2-2.72,16.36,16.36,0,0,0,.32-4Z"/><path class="cls-2" d="M656.56,144.75h-8.19V128.94a24.43,24.43,0,0,0-.53-6.49,4.55,4.55,0,0,0-1.7-2.28,4.86,4.86,0,0,0-2.85-.82,6.58,6.58,0,0,0-3.82,1.17,5.8,5.8,0,0,0-2.31,3.09,26.53,26.53,0,0,0-.63,7.11v14h-8.19v-31H636v4.55a12.67,12.67,0,0,1,15.16-4.27,8.3,8.3,0,0,1,3.4,2.49,9.13,9.13,0,0,1,1.6,3.44,25.68,25.68,0,0,1,.45,5.51Z"/><path class="cls-2" d="M682.81,134.89l8.16,1.37a13.38,13.38,0,0,1-5,6.84,14.58,14.58,0,0,1-8.5,2.35q-8.09,0-12-5.28a17.75,17.75,0,0,1-3.06-10.67c0-5.14,1.34-9.15,4-12.06a13.22,13.22,0,0,1,10.17-4.36q6.92,0,10.91,4.56t3.82,14H670.88a8.31,8.31,0,0,0,2,5.67,6.22,6.22,0,0,0,4.73,2,5,5,0,0,0,3.23-1A6.45,6.45,0,0,0,682.81,134.89Zm.46-8.28a7.89,7.89,0,0,0-1.83-5.41,5.92,5.92,0,0,0-8.69.1,7.55,7.55,0,0,0-1.72,5.31Z"/><path class="cls-2" d="M712.29,113.78v6.53h-5.6v12.48a30.59,30.59,0,0,0,.16,4.42,1.79,1.79,0,0,0,.73,1,2.26,2.26,0,0,0,1.38.41,10.7,10.7,0,0,0,3.3-.78l.7,6.35a16.28,16.28,0,0,1-6.48,1.23,10.17,10.17,0,0,1-4-.75,5.72,5.72,0,0,1-2.61-1.92,7.61,7.61,0,0,1-1.15-3.19,39.23,39.23,0,0,1-.26-5.78v-13.5H694.7v-6.53h3.77v-6.15l8.22-4.79v10.94Z"/></g></g></svg>