<svg xmlns="http://www.w3.org/2000/svg" viewBox="0 0 143.25 143.25"><defs><style>.cls-1{fill:#034877;}</style></defs><g id="Calque_2" data-name="Calque 2"><g id="Accueil"><g id="eb8ee116-946f-66a4-a2bb-64183428be89"><path class="cls-1" d="M71.63,143.25a71.36,71.36,0,0,0,71.62-71.62A71.38,71.38,0,0,0,71.63,0,71.39,71.39,0,0,0,0,71.63a71.38,71.38,0,0,0,71.63,71.62Zm4.11-12.16a33.24,33.24,0,0,1-4.11.17c-1.89,0-3.77-.17-5.66-.35a104.25,104.25,0,0,1-13.54-30.67H82.76a14.88,14.88,0,0,0,5.14,6.51A104.16,104.16,0,0,1,75.74,131.09ZM92,127.66a108.42,108.42,0,0,0,7.88-18.34,14.87,14.87,0,0,0,10.8-9.08h13.19A61.12,61.12,0,0,1,92,127.66Zm39.07-56a65.78,65.78,0,0,1-2.23,16.45H110.35a15.64,15.64,0,0,0-4.8-5.83q.53-5.66.52-11.31a119,119,0,0,0-1-15.76h23.65A52.45,52.45,0,0,1,131.09,71.63ZM123.89,43H103a115.3,115.3,0,0,0-9.93-26.9A60.65,60.65,0,0,1,123.89,43ZM94.07,70.94c0,2.91-.17,5.83-.34,8.74a14.81,14.81,0,0,0-10.62,8.4H50a118.74,118.74,0,0,1-1.2-15.6,93.84,93.84,0,0,1,.51-9.76,15.47,15.47,0,0,0,10.28-7.54H93.05a120.69,120.69,0,0,1,1,15.76Zm-26.9-58.6a40.63,40.63,0,0,1,4.46-.17c1.71,0,3.42,0,5.14.17A104,104,0,0,1,90.3,43H60.49a16.43,16.43,0,0,0-5.31-7.37,111,111,0,0,1,12-23.3ZM50.89,15.76A127.91,127.91,0,0,0,43.35,32.9,15.18,15.18,0,0,0,32,42.84H19.53A60.32,60.32,0,0,1,50.89,15.76ZM12.17,71.63a57.55,57.55,0,0,1,2.4-16.45H33.24a17.08,17.08,0,0,0,4.29,5c-.35,4.11-.69,8.22-.69,12.33a116.46,116.46,0,0,0,1,15.6H14.57A53,53,0,0,1,12.17,71.63Zm27.76,28.44A118,118,0,0,0,49.86,127a60.05,60.05,0,0,1-30.5-26.9Z"/></g></g></g></svg>