<svg xmlns="http://www.w3.org/2000/svg" viewBox="0 0 416 205.81"><defs><style>.cls-1{fill:#034877;}.cls-2{isolation:isolate;font-size:36.15px;fill:#fd2d01;font-family:Arial-BoldMT, Arial;font-weight:700;}</style></defs><g id="Calque_1" data-name="Calque 1"><g id="_9269873b-566f-aa23-fe77-697bbc54db67" data-name=" 9269873b-566f-aa23-fe77-697bbc54db67"><path class="cls-1" d="M48.42,96.42a48.11,48.11,0,0,0,48.3-47.89v-.3A48.16,48.16,0,0,0,48.8-.17h-.38A48.11,48.11,0,0,0,.12,47.73V48A48.13,48.13,0,0,0,48,96.33.78.78,0,0,0,48.42,96.42Zm2.7-8.19c-.93.08-1.86.11-2.8.1-1.3,0-2.5-.1-3.8-.2a71.07,71.07,0,0,1-9.1-20.7h20.5a9.52,9.52,0,0,0,3.5,4.4A72.86,72.86,0,0,1,51.12,88.23Zm11-2.31a75,75,0,0,0,5.3-12.4,10.22,10.22,0,0,0,7.3-6.1h8.9A41.48,41.48,0,0,1,62.12,85.92Zm26.4-37.8A41.68,41.68,0,0,1,87,59.23H74.52a9.36,9.36,0,0,0-3.2-3.9c.2-2.5.3-5.1.3-7.6a73.63,73.63,0,0,0-.7-10.6h15.9A33.62,33.62,0,0,1,88.52,48.12Zm-4.9-19.29H69.52a77.24,77.24,0,0,0-6.7-18.1A40.41,40.41,0,0,1,83.62,28.83ZM63.52,47.62c0,2-.1,3.91-.2,5.91a9.92,9.92,0,0,0-7.2,5.7H33.82a75.39,75.39,0,0,1-.8-10.5q0-3.3.3-6.6a10.33,10.33,0,0,0,6.9-5.1h22.5A62.64,62.64,0,0,1,63.52,47.62ZM45.42,8.13c1-.1,2-.1,3-.1,1.2,0,2.3,0,3.5.1A70.84,70.84,0,0,1,61,28.83H40.92a10.57,10.57,0,0,0-3.6-5A77.52,77.52,0,0,1,45.42,8.13Zm-11,2.3A79.88,79.88,0,0,0,29.32,22a10.3,10.3,0,0,0-7.6,6.7h-8.4A40.23,40.23,0,0,1,34.42,10.43ZM8.32,48.12A37.86,37.86,0,0,1,9.92,37h12.6a10.43,10.43,0,0,0,2.9,3.3c-.2,2.79-.5,5.5-.5,8.29a75.08,75.08,0,0,0,.7,10.5H9.92A37.21,37.21,0,0,1,8.32,48.12ZM27,67.23a77.57,77.57,0,0,0,6.7,18.1,41.11,41.11,0,0,1-20.6-18.1Z" transform="translate(-0.12 0.18)"/></g></g><g id="Calque_2" data-name="Calque 2"><text class="cls-2" transform="translate(282.06 192.2)">Intranet</text><g id="b5a93e15-ef7c-9d7a-680b-cdb17474f15f"><path class="cls-1" d="M26,156h0a24,24,0,0,1-17.9-7.2h0a24.31,24.31,0,0,1-7.2-18h0A24.63,24.63,0,0,1,8.12,113h0a24.07,24.07,0,0,1,17.9-7.2h0a27.47,27.47,0,0,1,18.4,6.7h0l-6.7,7.3h0a18.54,18.54,0,0,0-11.8-4h0A15.07,15.07,0,0,0,15,120h0a14.35,14.35,0,0,0-4.1,10.7h0q0,7,4.2,11.1h0a14.72,14.72,0,0,0,10.9,4.1h0c3.6,0,6.4-.7,8.3-2.1h0v-8.6h-6.7v-9.4h16.7v23.5h0A25.91,25.91,0,0,1,26,156Zm36.4-33.5v3.7h0a12.21,12.21,0,0,1,8.8-3.7h0c1,0,2.1.1,3.1.2h0l-1.5,9.3h0a7.22,7.22,0,0,0-4.7-1.6h0c-2.3.2-4.2,1.8-5.7,5h0V156h-9.3v-32.5Zm33.2,33.9h0a16.74,16.74,0,0,1-12.2-4.9h0a16.8,16.8,0,0,1-4.9-12.2h0a16.41,16.41,0,0,1,4.9-12.2h0a16.74,16.74,0,0,1,12.2-4.9h0a16.72,16.72,0,0,1,12.2,4.9h0a16.33,16.33,0,0,1,4.9,12.2h0a16.72,16.72,0,0,1-4.9,12.2h0a16.72,16.72,0,0,1-12.2,4.9Zm0-8.1h0a8.11,8.11,0,0,0,6.2-2.6h0a8.77,8.77,0,0,0,2.4-6.4h0a8.79,8.79,0,0,0-2.4-6.4h0a8.18,8.18,0,0,0-6.2-2.6h0a8.21,8.21,0,0,0-6.2,2.6h0a9.32,9.32,0,0,0-2.4,6.4h0a9,9,0,0,0,2.4,6.4h0a8,8,0,0,0,6.2,2.6Zm43.7-4.1h0v-21.7h9.4V156h-9.4v-3h0a11.68,11.68,0,0,1-8,3h0c-4.2,0-7.5-1.3-9.7-3.9h0a13.22,13.22,0,0,1-3.4-8.9h0v-20.7h9.4v18.4h0a7.59,7.59,0,0,0,1.7,5.2h0a6.47,6.47,0,0,0,5.1,2h0c1.8-.1,3.5-1.4,4.9-3.9Zm26.7,26h-9.4v-46.7l9.4-1v2.7h0a12.47,12.47,0,0,1,7.4-2.7h0c5.1,0,9.2,1.7,12.2,5h0a17.07,17.07,0,0,1,4.6,11.7h0a17.06,17.06,0,0,1-4.6,11.7h0c-3,3.3-7.1,5-12.2,5h0c-3.3-.2-5.8-1.1-7.4-2.8h0Zm0-33.9h0v5.4h0c.5,3.8,2.8,6,7.1,6.6h0c5.3-.4,8.4-3.2,9.1-8.3h0c-.2-6.3-3.3-9.5-9.1-9.8h0C168.82,130.92,166.52,132.92,166,136.32Zm46,20.1h0a16.34,16.34,0,0,1-12.2-4.9h0a16.8,16.8,0,0,1-4.9-12.2h0a16.82,16.82,0,0,1,4.9-12.2h0a16.38,16.38,0,0,1,12.2-4.9h0a16.72,16.72,0,0,1,12.2,4.9h0a16.74,16.74,0,0,1,4.9,12.2h0a16.72,16.72,0,0,1-4.9,12.2h0A16.72,16.72,0,0,1,212,156.42Zm0-8.1h0a8.11,8.11,0,0,0,6.2-2.6h0a8.77,8.77,0,0,0,2.4-6.4h0a8.79,8.79,0,0,0-2.4-6.4h0a8.18,8.18,0,0,0-6.2-2.6h0a8.21,8.21,0,0,0-6.2,2.6h0a9.32,9.32,0,0,0-2.4,6.4h0a9.54,9.54,0,0,0,2.3,6.4h0a8.37,8.37,0,0,0,6.3,2.6Zm32.8-13.7h0V156h-9.4v-32.5l9.4-1v3h0a11.33,11.33,0,0,1,8-2.9h0c4.2,0,7.4,1.3,9.7,3.8h0c2.5-2.5,6.1-3.8,11-3.8h0c4.3,0,7.5,1.3,9.8,3.8h0a12.77,12.77,0,0,1,3.3,8.9h0V156h-9.4v-18.4h0a8,8,0,0,0-1.5-5.2h0c-1-1.2-2.6-1.8-4.9-1.9h0c-1.9.1-3.5,1.4-4.8,3.7h0a16.57,16.57,0,0,0-.2,2.1h0v19.8h-9.4v-18.5h0a8,8,0,0,0-1.5-5.2h0c-1-1.2-2.6-1.8-4.9-1.9h0C248,130.62,246.22,132,244.82,134.62Zm54.4-2.3-3.7-5.7h0a27.48,27.48,0,0,1,14.8-4h0c4,0,7.2,1.1,9.5,3.3h0c2.4,2.3,3.5,5.6,3.5,10.1h0v20.1h-9.4v-2.7h0a13.24,13.24,0,0,1-7.4,2.6h0c-4.4,0-7.8-.9-10-2.8h0a9.51,9.51,0,0,1-3.3-7.8h0a12.41,12.41,0,0,1,3.2-8.4h0c2.1-2.5,5.5-3.7,10.2-3.7h0a17.35,17.35,0,0,1,7.4,2h0v-1h0c-.1-2.4-1.9-3.8-5.4-4h0a19,19,0,0,0-9.4,2ZM314,146h0v-3.8h0c-.9-1.7-3-2.6-6.4-2.6h0c-4,.5-6.1,2-6.4,4.7h0c.2,2.7,2.4,4.1,6.4,4.3h0c3.4,0,5.5-.8,6.4-2.6Zm27.1-11.2h0v21.3h-9.4v-32.6l9.4-1v3h0a11.93,11.93,0,0,1,8-3h0c4.3,0,7.5,1.3,9.7,3.8h0a12.77,12.77,0,0,1,3.3,8.9h0V156h-9.4v-18.4h0a7.56,7.56,0,0,0-1.7-5.2h0a6.69,6.69,0,0,0-5-1.9h0C344.22,130.62,342.52,132.12,341.12,134.82Zm38.3,21.2h-9.3v-33.5h9.4Zm-9.7-41.5h0a4.42,4.42,0,0,0,1.4,3.3h0a5.09,5.09,0,0,0,3.7,1.3h0a5,5,0,0,0,3.7-1.3h0a4.17,4.17,0,0,0,1.3-3.3h0a4.63,4.63,0,0,0-1.3-3.4h0a4.91,4.91,0,0,0-3.8-1.4h0a4.48,4.48,0,0,0-3.6,1.4h0a5,5,0,0,0-1.4,3.4Zm22.2,17.8-3.7-5.7h0a27.48,27.48,0,0,1,14.8-4h0q6,0,9.6,3.3h0c2.3,2.2,3.5,5.6,3.5,10h0V156h-9.4v-2.6h0a13.26,13.26,0,0,1-7.4,2.6h0c-4.5,0-7.8-.9-10-2.8h0a9.8,9.8,0,0,1-3.4-7.8h0A12.83,12.83,0,0,1,389,137h0c2.1-2.5,5.5-3.7,10.2-3.7h0a17.35,17.35,0,0,1,7.4,2h0v-1h0c0-2.4-1.8-3.8-5.3-4h0a19.38,19.38,0,0,0-9.4,2Zm14.8,13.7h0v-3.8h0c-.9-1.7-3-2.6-6.4-2.6h0c-4,.5-6.1,2-6.4,4.7h0c.2,2.7,2.4,4.1,6.4,4.3h0C403.72,148.62,405.92,147.82,406.72,146Z" transform="translate(-0.12 0.18)"/></g></g></svg>