<?xml version="1.0" encoding="utf-8"?>
<!-- Generator: Adobe Illustrator 25.2.1, SVG Export Plug-In . SVG Version: 6.00 Build 0)  -->
<svg version="1.1" id="Calque_1" xmlns="http://www.w3.org/2000/svg" xmlns:xlink="http://www.w3.org/1999/xlink" x="0px" y="0px"
	 viewBox="0 0 143.2 143.2" style="enable-background:new 0 0 143.2 143.2;" xml:space="preserve">
<style type="text/css">
	.st0{fill:#FFFFFF;}
</style>
<g id="Calque_2_1_">
	<g id="Accueil">
		<g id="eb8ee116-946f-66a4-a2bb-64183428be89">
			<path class="st0" d="M71.6,143.2c39.4,0.1,71.5-31.7,71.6-71.1c0-0.2,0-0.3,0-0.5C143.4,32.2,111.5,0.1,72.1,0
				c-0.2,0-0.3,0-0.5,0C32.2-0.1,0.1,31.7,0,71.1c0,0.2,0,0.3,0,0.5c-0.1,39.4,31.7,71.5,71.1,71.6
				C71.3,143.3,71.5,143.3,71.6,143.2z M75.7,131.1c-1.4,0.1-2.7,0.2-4.1,0.2c-1.9,0-3.8-0.2-5.7-0.4c-6.1-9.4-10.7-19.8-13.5-30.7
				h30.3c1.1,2.6,2.8,4.9,5.1,6.5C84.9,115.4,80.8,123.5,75.7,131.1z M92,127.7c3.2-5.9,5.8-12,7.9-18.3c4.9-1,9-4.4,10.8-9.1h13.2
				C116.8,112.9,105.5,122.6,92,127.7z M131.1,71.7c0,5.6-0.8,11.1-2.2,16.4h-18.5c-1.1-2.3-2.7-4.3-4.8-5.8
				c0.4-3.8,0.5-7.5,0.5-11.3c0-5.3-0.3-10.5-1-15.8h23.6C130.4,60.5,131.2,66.1,131.1,71.7L131.1,71.7z M123.9,43H103
				c-2.2-9.3-5.5-18.4-9.9-26.9C106.1,21.2,117,30.7,123.9,43z M94.1,70.9c0,2.9-0.2,5.8-0.3,8.7c-4.7,0.9-8.6,4.1-10.6,8.4H50
				c-0.7-5.2-1.1-10.4-1.2-15.6c0-3.3,0.2-6.5,0.5-9.8c4.4-0.9,8.1-3.7,10.3-7.5h33.5C93.7,60.4,94.1,65.7,94.1,70.9L94.1,70.9z
				 M67.2,12.3c1.5-0.1,3-0.2,4.5-0.2c1.7,0,3.4,0,5.1,0.2c6.1,9.4,10.7,19.8,13.5,30.7H60.5c-1-2.9-2.9-5.5-5.3-7.4
				C58.2,27.4,62.3,19.6,67.2,12.3L67.2,12.3z M50.9,15.8C48,21.3,45.4,27,43.3,32.9c-5.3,1.1-9.6,4.8-11.3,9.9H19.5
				C26.5,30.4,37.6,20.8,50.9,15.8z M12.2,71.6c0-5.6,0.8-11.1,2.4-16.5h18.7c1.1,1.9,2.5,3.6,4.3,5c-0.3,4.1-0.7,8.2-0.7,12.3
				c0,5.2,0.3,10.4,1,15.6H14.6C12.9,82.8,12.1,77.2,12.2,71.6z M39.9,100.1c2.2,9.3,5.5,18.4,9.9,26.9c-13-5.1-23.8-14.7-30.5-26.9
				L39.9,100.1z"/>
		</g>
	</g>
</g>
</svg>
