<svg xmlns="http://www.w3.org/2000/svg" viewBox="0 0 530 115.91"><defs><style>.cls-1{font-size:36.15px;fill:#fff;font-family:Arial-BoldMT, Arial;font-weight:700;}.cls-2{fill:#034877;}</style></defs><g id="Calque_2" data-name="Calque 2"><g id="Header"><text class="cls-1" transform="translate(396.06 102.3)">Intranet</text><g id="b5a93e15-ef7c-9d7a-680b-cdb17474f15f"><path class="cls-2" d="M139.88,66.35h0A24.31,24.31,0,0,1,122,59.14h0a24.38,24.38,0,0,1-7.21-18h0A24.34,24.34,0,0,1,122,23.3h0a24.31,24.31,0,0,1,17.89-7.21h0a27.1,27.1,0,0,1,18.44,6.72h0l-6.67,7.31h0a18.59,18.59,0,0,0-11.77-4h0A14.84,14.84,0,0,0,129,30.36h0a14.59,14.59,0,0,0-4.12,10.69h0q0,7,4.17,11.13h0a14.9,14.9,0,0,0,10.93,4.12h0c3.63,0,6.41-.71,8.34-2.11h0V45.56l-6.67,0V36.19h16.72V59.68h0a27.12,27.12,0,0,1-18.44,6.67Zm36.43-33.54v3.73h0a11.9,11.9,0,0,1,8.78-3.68h0a18.07,18.07,0,0,1,3.09.25h0l-1.47,9.26h0a7.08,7.08,0,0,0-4.66-1.57h0q-3.44.26-5.74,5h0V66.35H167V33.84ZM209.5,66.69h0a16.53,16.53,0,0,1-12.2-4.9h0a16.59,16.59,0,0,1-4.86-12.16h0a16.65,16.65,0,0,1,4.86-12.21h0a16.53,16.53,0,0,1,12.2-4.9h0a16.57,16.57,0,0,1,12.21,4.9h0a16.58,16.58,0,0,1,4.91,12.21h0a16.42,16.42,0,0,1-4.91,12.16h0a16.57,16.57,0,0,1-12.21,4.9Zm0-8.09h0a8,8,0,0,0,6.18-2.6h0a8.93,8.93,0,0,0,2.4-6.37h0a9,9,0,0,0-2.4-6.38h0a8.09,8.09,0,0,0-6.22-2.59h0a8,8,0,0,0-6.18,2.59h0a9.05,9.05,0,0,0-2.36,6.38h0A9,9,0,0,0,203.28,56h0A8.08,8.08,0,0,0,209.5,58.6Zm43.69-4.12h0V32.81h9.36V66.35h-9.36v-3h0a11.67,11.67,0,0,1-8,3h0q-6.37,0-9.71-3.88h0a13.07,13.07,0,0,1-3.38-8.87h0V32.81h9.41V51.25h0a7.51,7.51,0,0,0,1.67,5.19h0a6.65,6.65,0,0,0,5.05,2h0C250.15,58.27,251.82,57,253.19,54.48Zm26.72,26-9.37,0V33.84l9.37-1v2.7h0a12.74,12.74,0,0,1,7.4-2.7h0q7.69,0,12.21,5h0a16.85,16.85,0,0,1,4.56,11.72h0a16.85,16.85,0,0,1-4.56,11.72h0q-4.51,5-12.21,5h0q-5-.34-7.4-2.75h0Zm0-33.93h0V52h0q.69,5.64,7.06,6.62h0q8-.63,9.07-8.33h0q-.35-9.42-9.07-9.76h0Q280.6,41.55,279.91,46.54Zm46,20.15h0a16.39,16.39,0,0,1-12.16-4.9h0a16.51,16.51,0,0,1-4.91-12.16h0a16.58,16.58,0,0,1,4.91-12.21h0a16.39,16.39,0,0,1,12.16-4.9h0a16.53,16.53,0,0,1,12.2,4.9h0A16.58,16.58,0,0,1,343,49.63h0a16.42,16.42,0,0,1-4.91,12.16h0a16.53,16.53,0,0,1-12.2,4.9Zm0-8.09h0a7.92,7.92,0,0,0,6.17-2.6h0a8.89,8.89,0,0,0,2.41-6.37h0a8.92,8.92,0,0,0-2.41-6.38h0a8,8,0,0,0-6.22-2.59h0a8,8,0,0,0-6.18,2.59h0a9,9,0,0,0-2.35,6.38h0A9,9,0,0,0,319.67,56h0A8.11,8.11,0,0,0,325.9,58.6Zm32.75-13.68h0V66.35h-9.42V33.84l9.42-1v3h0a11.28,11.28,0,0,1,8-2.94h0q6.31,0,9.71,3.83h0q3.68-3.82,11-3.83h0q6.38,0,9.75,3.83h0a13.23,13.23,0,0,1,3.34,8.92h0V66.35h-9.37V47.91h0a8,8,0,0,0-1.52-5.19h0q-1.51-1.81-4.9-1.92h0q-2.79.2-4.8,3.68h0a10.56,10.56,0,0,0-.2,2.11h0V66.35h-9.37V47.91h0a8,8,0,0,0-1.51-5.19h0c-1-1.21-2.65-1.85-4.91-1.92h0C361.88,40.93,360.12,42.31,358.65,44.92Zm54.47-2.35-3.68-5.69h0a27.08,27.08,0,0,1,14.76-4h0q6,0,9.51,3.33h0q3.53,3.39,3.53,10.06h0v20.1h-9.37V63.7h0a14.12,14.12,0,0,1-7.4,2.65h0q-6.66,0-10.05-2.85h0a9.75,9.75,0,0,1-3.33-7.84h0a12.44,12.44,0,0,1,3.18-8.38h0c2.1-2.46,5.49-3.68,10.2-3.68h0a17.15,17.15,0,0,1,7.4,2h0v-1h0q-.09-3.67-5.39-4h0q-6,0-9.36,2ZM427.87,56.3h0V52.52h0q-1.32-2.6-6.37-2.6h0q-6,.69-6.37,4.71h0q.35,4,6.37,4.31h0Q426.56,58.94,427.87,56.3ZM455,45.07h0V66.35h-9.42V33.84l9.42-1v3h0a11.73,11.73,0,0,1,8-3h0q6.38,0,9.7,3.83h0a13.23,13.23,0,0,1,3.34,8.92h0V66.35h-9.37V47.91h0a7.51,7.51,0,0,0-1.66-5.19h0A7,7,0,0,0,460,40.8h0C458.06,40.93,456.41,42.36,455,45.07Zm38.34,21.28H484V32.81h9.37Zm-9.71-41.53h0A4.51,4.51,0,0,0,485,28.15h0a5.13,5.13,0,0,0,3.73,1.33h0a5.07,5.07,0,0,0,3.68-1.33h0a4.51,4.51,0,0,0,1.32-3.33h0a4.68,4.68,0,0,0-1.32-3.38h0a5.11,5.11,0,0,0-3.78-1.38h0A4.91,4.91,0,0,0,485,21.44h0A4.68,4.68,0,0,0,483.67,24.82Zm22.21,17.75-3.68-5.69h0a27.08,27.08,0,0,1,14.76-4h0q6,0,9.56,3.33h0Q530,39.58,530,46.25h0v20.1h-9.36V63.7h0a14,14,0,0,1-7.36,2.65h0q-6.72,0-10-2.85h0a9.7,9.7,0,0,1-3.38-7.84h0A12.44,12.44,0,0,1,503,47.28h0q3.15-3.69,10.25-3.68h0a17.14,17.14,0,0,1,7.36,2h0v-1h0q-.06-3.67-5.35-4h0q-6,0-9.41,2ZM520.64,56.3h0V52.52h0c-.89-1.73-3-2.6-6.38-2.6h0q-6,.69-6.37,4.71h0q.35,4,6.37,4.31h0C517.63,58.94,519.75,58.06,520.64,56.3Z"/></g><g id="_9269873b-566f-aa23-fe77-697bbc54db67" data-name="9269873b-566f-aa23-fe77-697bbc54db67"><path class="cls-2" d="M48.28,96.56A48.11,48.11,0,0,0,96.56,48.28,48.11,48.11,0,0,0,48.28,0,48.11,48.11,0,0,0,0,48.28,48.11,48.11,0,0,0,48.28,96.56Zm2.77-8.2a21.4,21.4,0,0,1-2.77.12c-1.27,0-2.54-.12-3.81-.24a70.09,70.09,0,0,1-9.13-20.67H55.79A10,10,0,0,0,59.25,72,70.1,70.1,0,0,1,51.05,88.36Zm11-2.31a73.2,73.2,0,0,0,5.31-12.36,10,10,0,0,0,7.27-6.12h8.9A41.23,41.23,0,0,1,62,86.05ZM88.36,48.28a44.47,44.47,0,0,1-1.5,11.09H74.38a10.51,10.51,0,0,0-3.23-3.93q.34-3.81.35-7.62a79.52,79.52,0,0,0-.7-10.63H86.74A35.2,35.2,0,0,1,88.36,48.28ZM83.51,29H69.42a77.74,77.74,0,0,0-6.7-18.13A40.89,40.89,0,0,1,83.51,29ZM63.41,47.82c0,2-.11,3.93-.23,5.89A10,10,0,0,0,56,59.37H33.73a79.26,79.26,0,0,1-.81-10.51,63.23,63.23,0,0,1,.34-6.59,10.42,10.42,0,0,0,6.94-5.08H62.72A81.23,81.23,0,0,1,63.41,47.82ZM45.28,8.32a26.1,26.1,0,0,1,3-.12,33.53,33.53,0,0,1,3.47.12A70.32,70.32,0,0,1,60.87,29H40.77a11.07,11.07,0,0,0-3.58-5A74.82,74.82,0,0,1,45.28,8.32Zm-11,2.31a85.94,85.94,0,0,0-5.08,11.55,10.2,10.2,0,0,0-7.62,6.7H13.17A40.56,40.56,0,0,1,34.3,10.63ZM8.2,48.28A39,39,0,0,1,9.82,37.19H22.41a11.27,11.27,0,0,0,2.89,3.35c-.24,2.77-.47,5.55-.47,8.32a77.74,77.74,0,0,0,.7,10.51H9.82A35.67,35.67,0,0,1,8.2,48.28ZM26.91,67.45a79.87,79.87,0,0,0,6.7,18.14A40.52,40.52,0,0,1,13.05,67.45Z"/></g></g></g></svg>